<svg xmlns="http://www.w3.org/2000/svg" viewBox="0 0 32 32" fill="none" stroke="currentColor" stroke-width="1.5" stroke-linecap="round" stroke-linejoin="round">
  
  <path d="M16 3 C12 8 10 11 10 15 C10 19 12.5 22 16 22 C19.5 22 22 19 22 15 C22 12 20 10 18 7 C17.5 9 17 10 16 10 C15.5 9 15.5 7 16 3 Z"></path>
  <path d="M13 15 C13 17.5 14.3 19 16 19 C17.7 19 19 17.5 19 15 C19 13.5 18 12.5 17 11 C16.7 12 16.4 12.5 16 12.5 C15.6 12.5 15.3 12 15 11 C14 12.5 13 13.5 13 15 Z" opacity="0.6"></path>
  <path d="M12 25 L20 25"></path>
  <path d="M13 28 L19 28" opacity="0.6"></path>
</svg>