<svg xmlns="http://www.w3.org/2000/svg" viewBox="0 0 32 32" fill="none" stroke="currentColor" stroke-width="1.5" stroke-linecap="round" stroke-linejoin="round">
  
  <path d="M16 5 C22 5 27 9.5 27 16 C27 22 22 27 16 27 C10 27 5 22 5 16 C5 11 9 7.5 13 6.5"></path>
  
  <path d="M13 6.5 L11 5 L14 4 L13 6.5 Z" fill="currentColor" stroke="none" opacity="0.9"></path>
  
  <circle cx="13" cy="5" r="0.6" fill="#0d0d0d" stroke="none"></circle>
  
  <path d="M22 8.5 L23 7.5 M24.5 11 L25.8 10.5 M25.5 14 L27 14 M25 18.5 L26.5 19 M22.5 22 L23.5 23 M19 25 L19.5 26.5 M15 26.5 L15 28 M11 26 L10.5 27.5 M7.5 23.5 L6.3 24.5 M5.5 20 L4 20.5 M4.8 16.5 L3.2 16.5 M6 13 L4.5 12.5" opacity="0.4"></path>
</svg>